<?xml version="1.0" encoding="UTF-8"?>
<svg xmlns="http://www.w3.org/2000/svg" version="1.1" width="461" height="178" style="background-color:transparent;">
  <path d="M0 0 C152.13 0 304.26 0 461 0 C461 58.74 461 117.48 461 178 C308.87 178 156.74 178 0 178 C0 119.26 0 60.52 0 0 Z " fill="none" transform="translate(0,0)"/>
  <path d="M0 0 C11.01074485 8.26263882 17.74419716 18.204344 20.34765625 31.76171875 C22.06587043 47.24932256 19.12842177 60.33254219 9.34765625 72.76171875 C7.03515625 75.38671875 7.03515625 75.38671875 4.34765625 77.76171875 C3.74695313 78.31601563 3.14625 78.8703125 2.52734375 79.44140625 C-8.4309012 88.86307073 -22.54798635 91.61667581 -36.64599609 90.93652344 C-49.14058676 89.84792196 -60.56795059 83.80921265 -69.09375 74.7109375 C-80.0154221 61.05200422 -82.07819544 46.7824237 -80.65234375 29.76171875 C-78.55023351 17.21632481 -70.94182915 7.55906197 -60.8671875 0.22265625 C-57.57023839 -1.95205093 -54.30454894 -3.73565968 -50.65234375 -5.23828125 C-49.98589844 -5.53734375 -49.31945312 -5.83640625 -48.6328125 -6.14453125 C-33.05962509 -12.0356144 -13.69396044 -8.83984113 0 0 Z " fill="#4C4C4B" transform="translate(431.65234375,55.23828125)"/>
  <path d="M0 0 C30.36 0 60.72 0 92 0 C92 7.92 92 15.84 92 24 C70.88 24 49.76 24 28 24 C28 32.25 28 40.5 28 49 C46.15 49 64.3 49 83 49 C83 56.59 83 64.18 83 72 C64.85 72 46.7 72 28 72 C28 80.58 28 89.16 28 98 C49.45 98 70.9 98 93 98 C93 105.92 93 113.84 93 122 C62.31 122 31.62 122 0 122 C0 81.74 0 41.48 0 0 Z " fill="#4D4E4D" transform="translate(9,21)"/>
  <path d="M0 0 C1.35762828 0.00373569 2.71525928 0.00658003 4.07289124 0.00857544 C7.62553507 0.01616819 11.17801228 0.03577853 14.73059082 0.0579834 C18.36399075 0.07853637 21.99741792 0.08759726 25.63085938 0.09765625 C32.74485934 0.11902911 39.85874685 0.15311163 46.97265625 0.1953125 C45.94924539 9.13287398 45.94924539 9.13287398 43.84765625 12.4453125 C43.28691406 13.38117187 43.28691406 13.38117187 42.71484375 14.3359375 C38.98689439 18.31464579 34.93319515 20.39156617 29.54125977 20.67773438 C27.89474815 20.69184289 26.2479835 20.686366 24.6015625 20.6640625 C23.72040268 20.67111206 22.83924286 20.67816162 21.93138123 20.6854248 C18.19034266 20.71473722 14.44983562 20.69831482 10.70874023 20.68603516 C7.96437012 20.68364271 5.22082922 20.7046313 2.4765625 20.7265625 C1.64298721 20.71524292 0.80941193 20.70392334 -0.04942322 20.69226074 C-5.83045675 20.7416011 -10.19219287 21.95692594 -15.02734375 25.1953125 C-17.61822802 27.75431327 -17.61822802 27.75431327 -19.71484375 30.8203125 C-20.12508789 31.38024902 -20.53533203 31.94018555 -20.95800781 32.51708984 C-22.33060506 34.39867916 -23.6786363 36.29654213 -25.02734375 38.1953125 C-26.03758193 39.59221777 -27.04935282 40.98801563 -28.0625 42.3828125 C-30.24378781 45.39007683 -32.41553074 48.40394328 -34.58203125 51.421875 C-38.14731165 56.37718421 -41.77179325 61.28772289 -45.40234375 66.1953125 C-49.49992958 71.73832145 -53.55209997 77.30116391 -57.4765625 82.96875 C-61.92447411 89.35492033 -66.56877633 95.59694707 -71.2578125 101.80712891 C-76.01841634 108.11431709 -80.67862183 114.47453602 -85.21484375 120.9453125 C-102.79016307 145.95100921 -120.15112398 161.59473587 -150.91674805 167.06152344 C-179.95720076 171.47671459 -209.76427727 167.83554579 -237.02734375 157.1953125 C-238.13529297 156.76436279 -238.13529297 156.76436279 -239.265625 156.32470703 C-250.7268712 151.79625761 -250.7268712 151.79625761 -252.02734375 149.1953125 C-251.4461377 149.3814209 -250.86493164 149.5675293 -250.26611328 149.75927734 C-243.54666162 151.85009669 -236.79475308 153.41582154 -229.90234375 154.8203125 C-228.86980469 155.036875 -227.83726562 155.2534375 -226.7734375 155.4765625 C-206.67980164 159.62327461 -183.98022145 160.65832132 -164.02734375 155.1953125 C-162.89941406 154.90527344 -161.77148438 154.61523438 -160.609375 154.31640625 C-141.89028966 149.07155116 -130.70166372 139.89287691 -119.66162109 124.46923828 C-117.43830715 121.37572976 -115.17159555 118.31517998 -112.90551758 115.25292969 C-111.13973787 112.8657706 -109.37961991 110.47453771 -107.62109375 108.08203125 C-105.18629048 104.77013938 -102.74877613 101.46027443 -100.30859375 98.15234375 C-89.38289306 83.35027557 -89.38289306 83.35027557 -78.63061523 68.42211914 C-73.63694816 61.40160488 -68.54973796 54.45468331 -63.42700195 47.52783203 C-59.84308037 42.67627763 -56.29069372 37.80396699 -52.76977539 32.90649414 C-50.64348983 29.94959449 -48.50780256 26.99958043 -46.36962891 24.05126953 C-45.23173868 22.47792623 -44.1031226 20.89788204 -42.9765625 19.31640625 C-31.90000202 4.26756202 -17.96831152 -0.14287724 0 0 Z " fill="#4C4E4D" transform="translate(379.02734375,5.8046875)"/>
  <path d="M0 0 C8.91 0 17.82 0 27 0 C27.02578125 4.310625 27.0515625 8.62125 27.078125 13.0625 C27.10983783 16.5165072 27.14549003 19.97042418 27.18379211 23.42436218 C27.22304703 27.0610844 27.2554858 30.69756507 27.27099609 34.33447266 C27.28622717 37.84259227 27.32078433 41.35005417 27.36830902 44.85787964 C27.39019599 46.83622203 27.39246818 48.81475033 27.39434814 50.79321289 C27.52373201 58.80258965 28.03028488 65.15057928 34.0625 71 C41.22967713 73.43989009 48.13009951 72.44093179 55.02734375 69.65625 C59.02247376 66.30192302 60.74123065 62.02252763 61.38865662 56.96228027 C61.55748912 53.33496191 61.60586515 49.72500189 61.609375 46.09375 C61.62437992 44.75994889 61.64111187 43.4261662 61.65948486 42.09240723 C61.70291259 38.60724975 61.72310208 35.12234278 61.73822021 31.63696289 C61.75788092 28.07032767 61.79962743 24.50395291 61.83984375 20.9375 C61.91694102 13.958168 61.95754275 6.97997177 62 0 C71.24 0 80.48 0 90 0 C90 31.02 90 62.04 90 94 C81.09 94 72.18 94 63 94 C63 89.71 63 85.42 63 81 C62.34 81 61.68 81 61 81 C60.835 81.680625 60.67 82.36125 60.5 83.0625 C57.11285736 89.69565434 51.68493837 93.08977777 44.75 95.4375 C34.10251002 98.27765033 24.95384022 97.89586278 15 93 C8.00753478 88.562474 3.22207905 81.18797727 0.91748047 73.2902832 C-0.5481025 66.35731783 -0.24683526 59.29446918 -0.1953125 52.24609375 C-0.19157551 50.734382 -0.18873179 49.22266781 -0.18673706 47.71095276 C-0.17915453 43.76049946 -0.15955326 39.81019668 -0.1373291 35.85980225 C-0.11675378 31.81736282 -0.10771052 27.77489873 -0.09765625 23.73242188 C-0.07630145 15.82153831 -0.04116418 7.91080531 0 0 Z " fill="#323232" transform="translate(157,49)"/>
  <path d="M0 0 C8.91 0 17.82 0 27 0 C27 40.92 27 81.84 27 124 C18.09 124 9.18 124 0 124 C0 83.08 0 42.16 0 0 Z " fill="#5C5E5D" transform="translate(115,19)"/>
  <path d="M0 0 C5.1049506 0.06381188 10.06240311 0.84450653 15.09375 1.65625 C16.47046875 1.87087891 16.47046875 1.87087891 17.875 2.08984375 C20.11549119 2.4399205 22.35495947 2.7954849 24.59375 3.15625 C23.23396095 6.05377083 21.6757388 8.54586282 19.7578125 11.10546875 C18.91222778 12.24133423 18.91222778 12.24133423 18.04956055 13.40014648 C17.44539307 14.20653564 16.84122559 15.0129248 16.21875 15.84375 C11.48874438 22.20394988 6.82790034 28.60118374 2.28125 35.09375 C-15.25266283 60.02366078 -32.63087208 75.5735921 -63.2956543 81.02246094 C-92.33610701 85.43765209 -122.14318352 81.79648329 -149.40625 71.15625 C-150.14488281 70.8689502 -150.88351563 70.58165039 -151.64453125 70.28564453 C-163.10577745 65.75719511 -163.10577745 65.75719511 -164.40625 63.15625 C-163.82504395 63.3423584 -163.24383789 63.5284668 -162.64501953 63.72021484 C-155.92556787 65.81103419 -149.17365933 67.37675904 -142.28125 68.78125 C-141.24871094 68.9978125 -140.21617187 69.214375 -139.15234375 69.4375 C-119.05870789 73.58421211 -96.3591277 74.61925882 -76.40625 69.15625 C-75.27832031 68.86621094 -74.15039062 68.57617188 -72.98828125 68.27734375 C-54.27708037 63.03469778 -43.08554975 53.86098074 -32.04931641 38.44335938 C-29.2065224 34.4862577 -26.30114019 30.57530216 -23.40625 26.65625 C-22.23559721 25.06516293 -21.06502399 23.47401731 -19.89453125 21.8828125 C-16.48102092 17.25053273 -13.04421655 12.63605445 -9.59375 8.03125 C-9.08392578 7.34998047 -8.57410156 6.66871094 -8.04882812 5.96679688 C-3.69638468 0.16955893 -3.69638468 0.16955893 0 0 Z " fill="#303132" transform="translate(291.40625,91.84375)"/>
  <path d="M0 0 C5.54909153 3.19561504 9.63734683 6.74509573 12.140625 12.7109375 C14.2731268 21.54398441 14.5056616 31.9570011 10.0078125 40.0625 C9.6365625 40.63097656 9.2653125 41.19945312 8.8828125 41.78515625 C8.3053125 42.71328125 7.7278125 43.64140625 7.1328125 44.59765625 C0.84749439 50.70838219 -5.15158212 51.22832508 -13.75 51.21875 C-20.48961298 50.350888 -24.40901192 47.09114872 -28.5703125 42 C-33.97095139 34.26726704 -34.31655694 24.94131805 -33.1171875 15.78515625 C-30.43547004 8.67998731 -25.73268098 2.97144264 -18.81640625 -0.3046875 C-12.63446805 -2.38919054 -6.08323742 -2.37078551 0 0 Z " fill="#DBDBD9" transform="translate(411.1171875,71.21484375)"/>
  <path d="M0 0 C1.50741388 0.00935058 3.01484318 0.01645605 4.52227783 0.0214386 C8.44840051 0.04033257 12.37356624 0.08927481 16.29931641 0.1449585 C20.3218085 0.19653676 24.34445851 0.21903407 28.3671875 0.24414062 C36.22965012 0.29741658 44.09115749 0.38520156 51.953125 0.48828125 C51.953125 7.74828125 51.953125 15.00828125 51.953125 22.48828125 C21.923125 22.48828125 -8.106875 22.48828125 -39.046875 22.48828125 C-39.046875 16.54828125 -39.046875 10.60828125 -39.046875 4.48828125 C-38.716875 4.48828125 -38.386875 4.48828125 -38.046875 4.48828125 C-38.046875 6.46828125 -38.046875 8.44828125 -38.046875 10.48828125 C-37.46421875 10.18535156 -36.8815625 9.88242188 -36.28125 9.5703125 C-33.55230213 8.17580297 -30.80045286 6.83350129 -28.046875 5.48828125 C-27.18149109 5.04237137 -26.31610718 4.59646149 -25.42449951 4.13703918 C-16.95725527 0.12953473 -9.16992494 -0.16943539 0 0 Z " fill="#2B2C2C" transform="translate(49.046875,119.51171875)"/>
  <path d="M0 0 C6.10556312 0.95770231 11.97914295 2.4401214 17.9375 4.0625 C18.99646484 4.32482422 20.05542969 4.58714844 21.14648438 4.85742188 C27.82403879 6.70280965 31.3332437 8.73201596 35.56079102 14.2253418 C37.48232868 16.5947493 39.02261337 17.38591401 42 18 C44.33044356 18.14290456 46.66536767 18.22032247 49 18.25 C56.99280832 18.5678289 62.94294998 21.28014261 70 25 C72.0978386 25.97210768 74.20165967 26.93145707 76.3125 27.875 C77.21613281 28.28492188 78.11976563 28.69484375 79.05078125 29.1171875 C79.69402344 29.40851563 80.33726562 29.69984375 81 30 C81 30.99 81 31.98 81 33 C71.1841982 40.93618018 56.99261705 43.91228202 44.62890625 43.4140625 C30.72517154 41.82762991 17.87682953 36.10159884 9 25 C6.79095163 21.76737366 4.84362116 18.45259962 3 15 C2.65710938 14.36835937 2.31421875 13.73671875 1.9609375 13.0859375 C-0.24313513 8.57479819 -0.25780445 4.89828448 0 0 Z " fill="#2D2F2F" transform="translate(352,103)"/>
  <path d="M0 0 C4.86122924 2.34059186 7.52188785 5.22733957 10 10 C10.58025474 12.70135402 10.80896866 15.23004555 11 18 C15.29 18 19.58 18 24 18 C25.30937636 26.20958192 25.72007363 33.01903452 20.8828125 40.13671875 C17.48584341 44.62359629 13.83078738 48.87884709 10 53 C7.04477511 50.18829597 4.64005937 47.28494439 2.3125 43.9375 C1.71050781 43.08027344 1.10851562 42.22304688 0.48828125 41.33984375 C-1 39 -1 39 -2 36 C-12.56 36 -23.12 36 -34 36 C-34 30.06 -34 24.12 -34 18 C-29.71 18 -25.42 18 -21 18 C-20.9175 16.96875 -20.835 15.9375 -20.75 14.875 C-19.6674687 9.28192163 -17.16026677 6.27076837 -13.375 2.125 C-8.81617827 -0.74536924 -5.25405935 -0.91560969 0 0 Z " fill="#505250" transform="translate(293,5)"/>
  <path d="M0 0 C0 16.5 0 33 0 50 C-8.91 50 -17.82 50 -27 50 C-27 34.82 -27 19.64 -27 4 C-7 0 -7 0 0 0 Z " fill="#313131" transform="translate(142,93)"/>
  <path d="M0 0 C9.24 0 18.48 0 28 0 C28 12.87 28 25.74 28 39 C19.09 39 10.18 39 1 39 C1 44.94 1 50.88 1 57 C0.67 57 0.34 57 0 57 C0 38.19 0 19.38 0 0 Z " fill="#6C6E6C" transform="translate(219,49)"/>
  <path d="M0 0 C8.91 0 17.82 0 27 0 C27 13.2 27 26.4 27 40 C18.09 40.66 9.18 41.32 0 42 C0 28.14 0 14.28 0 0 Z " fill="#717270" transform="translate(157,49)"/>
  <path d="M0 0 C0.66 0 1.32 0 2 0 C3.32177734 1.56616211 3.32177734 1.56616211 4.8359375 3.77734375 C5.39998291 4.59299805 5.96402832 5.40865234 6.54516602 6.24902344 C7.14901123 7.1362207 7.75285645 8.02341797 8.375 8.9375 C9.64147714 10.77504977 10.90841235 12.61228391 12.17578125 14.44921875 C12.81467285 15.37911621 13.45356445 16.30901367 14.11181641 17.26708984 C17.35970627 21.96800518 20.68031851 26.61743337 24.00341797 31.26538086 C27.17959807 35.73988237 30.13961206 40.31753643 33 45 C5.4874294 47.54293223 5.4874294 47.54293223 -1.62890625 43.51025391 C-5.47198782 39.91430692 -7.88333543 35.66379164 -10.06054688 30.91259766 C-11.34543653 28.29673863 -13.08766617 26.18367849 -15 24 C-12.96432098 18.4769392 -9.81715534 14.01212615 -6.5 9.1875 C-5.90574219 8.30384766 -5.31148438 7.42019531 -4.69921875 6.50976562 C-4.12816406 5.67509766 -3.55710937 4.84042969 -2.96875 3.98046875 C-2.44732422 3.21629639 -1.92589844 2.45212402 -1.38867188 1.66479492 C-0.93041016 1.1154126 -0.47214844 0.56603027 0 0 Z " fill="#2F3131" transform="translate(323,98)"/>
  <path d="M0 0 C28.45579484 -2.53091821 28.45579484 -2.53091821 35.67480469 1.48974609 C39.82130402 5.35285158 42.96257095 10.37642406 44 16 C43.17070945 20.0646917 40.83280236 22.68163545 38.1875 25.8125 C35.57258621 28.97792196 33.22458402 32.09644536 31.125 35.625 C30.42375 36.73875 29.7225 37.8525 29 39 C28.34 39 27.68 39 27 39 C25.78588867 37.54150391 25.78588867 37.54150391 24.41796875 35.4765625 C23.64694824 34.32788696 23.64694824 34.32788696 22.86035156 33.15600586 C22.30831055 32.32077393 21.75626953 31.48554199 21.1875 30.625 C15.96092147 22.83769411 10.58576379 15.18527918 5.05151367 7.61376953 C4.53435791 6.90462402 4.01720215 6.19547852 3.484375 5.46484375 C3.02772461 4.842146 2.57107422 4.21944824 2.10058594 3.57788086 C1 2 1 2 0 0 Z " fill="#5C5D5B" transform="translate(253,49)"/>
  <path d="M0 0 C3.02508145 1.73602105 5.41790069 3.83580137 7 7 C7 8.98 7 10.96 7 13 C-0.26 13 -7.52 13 -15 13 C-13.85279188 4.96954315 -13.85279188 4.96954315 -10 1 C-6.77140153 -0.61429923 -3.49006347 -0.59570657 0 0 Z " fill="#D5D6D5" transform="translate(292,10)"/>
  <path d="M0 0 C0.33 0 0.66 0 1 0 C1 17.82 1 35.64 1 54 C1.66 54.33 2.32 54.66 3 55 C2.01 55.66 1.02 56.32 0 57 C-0.495 56.505 -0.495 56.505 -1 56 C-2.92478813 55.84193469 -4.8549921 55.748865 -6.78515625 55.68359375 C-8.53989258 55.62075195 -8.53989258 55.62075195 -10.33007812 55.55664062 C-11.56177734 55.51732422 -12.79347656 55.47800781 -14.0625 55.4375 C-15.29806641 55.39431641 -16.53363281 55.35113281 -17.80664062 55.30664062 C-20.87097335 55.20015802 -23.93539073 55.09814576 -27 55 C-27 54.67 -27 54.34 -27 54 C-18.09 54 -9.18 54 0 54 C0 36.18 0 18.36 0 0 Z " fill="#D2D2D1" transform="translate(247,89)"/>
  <path d="M0 0 C0.85658203 0.27263672 0.85658203 0.27263672 1.73046875 0.55078125 C8.74564162 2.72559637 15.83049367 4.41551663 23 6 C22.01 6.99 21.02 7.98 20 9 C12.84870304 7.12849037 6.50594543 4.50213658 0 1 C0 0.67 0 0.34 0 0 Z " fill="#555555" transform="translate(127,155)"/>
  <path d="M0 0 C2.31 0 4.62 0 7 0 C6.360625 0.309375 5.72125 0.61875 5.0625 0.9375 C3.06389179 1.8345163 3.06389179 1.8345163 2 3 C1.84141158 5.14386657 1.74870702 7.29266838 1.68359375 9.44140625 C1.64169922 10.74658203 1.59980469 12.05175781 1.55664062 13.39648438 C1.51682392 14.7851533 1.47711175 16.17382522 1.4375 17.5625 C1.39432011 18.95509183 1.350706 20.34767028 1.30664062 21.74023438 C1.20014124 25.16004801 1.09813077 28.57993763 1 32 C0.67 32 0.34 32 0 32 C0 21.44 0 10.88 0 0 Z " fill="#4A4B4B" transform="translate(115,20)"/>
  <path d="M0 0 C-0.99 0.66 -1.98 1.32 -3 2 C-3.33 1.67 -3.66 1.34 -4 1 C-5.92478813 0.84193469 -7.8549921 0.748865 -9.78515625 0.68359375 C-10.95498047 0.64169922 -12.12480469 0.59980469 -13.33007812 0.55664062 C-15.17762695 0.49766602 -15.17762695 0.49766602 -17.0625 0.4375 C-18.29806641 0.39431641 -19.53363281 0.35113281 -20.80664062 0.30664062 C-23.87097335 0.20015802 -26.93539073 0.09814576 -30 0 C-30 -0.33 -30 -0.66 -30 -1 C-25.56319547 -1.22547184 -21.12562853 -1.42745053 -16.6875 -1.625 C-15.42486328 -1.68945312 -14.16222656 -1.75390625 -12.86132812 -1.8203125 C-11.65283203 -1.871875 -10.44433594 -1.9234375 -9.19921875 -1.9765625 C-8.08377686 -2.02893066 -6.96833496 -2.08129883 -5.8190918 -2.13525391 C-3 -2 -3 -2 0 0 Z " fill="#BABCBB" transform="translate(250,144)"/>
  <path d="M0 0 C0.66 0 1.32 0 2 0 C2 4.29 2 8.58 2 13 C1.67 13 1.34 13 1 13 C0.67 10.36 0.34 7.72 0 5 C-1.32 6.32 -2.64 7.64 -4 9 C-4.66 8.67 -5.32 8.34 -6 8 C-5.04956626 6.66102417 -4.08940853 5.32894573 -3.125 4 C-2.59132812 3.2575 -2.05765625 2.515 -1.5078125 1.75 C-1.01023438 1.1725 -0.51265625 0.595 0 0 Z " fill="#C1C0BE" transform="translate(218,130)"/>
  <path d="M0 0 C1.65 0 3.3 0 5 0 C4.67 1.65 4.34 3.3 4 5 C2.35 4.67 0.7 4.34 -1 4 C-0.67 2.68 -0.34 1.36 0 0 Z " fill="#C8CBCA" transform="translate(272,28)"/>
  <path d="M0 0 C1.65 0 3.3 0 5 0 C4.67 1.65 4.34 3.3 4 5 C2.68 5 1.36 5 0 5 C0 3.35 0 1.7 0 0 Z " fill="#D3D7D3" transform="translate(300,28)"/>
</svg>
